<svg width="228" height="62" viewBox="0 0 228 62" fill="none" xmlns="http://www.w3.org/2000/svg">
<path d="M39.5759 61.4946C55.9902 61.4946 69.2967 47.9262 69.2967 31.1887C69.2967 14.4512 55.9902 0.882812 39.5759 0.882812C23.1615 0.882812 9.85498 14.4512 9.85498 31.1887C9.85498 47.9262 23.1615 61.4946 39.5759 61.4946Z" fill="#5FEBFF"/>
<path d="M29.7209 61.4946C46.1353 61.4946 59.4417 47.9262 59.4417 31.1887C59.4417 14.4512 46.1353 0.882812 29.7209 0.882812C13.3065 0.882812 0 14.4512 0 31.1887C0 47.9262 13.3065 61.4946 29.7209 61.4946Z" fill="#FF00FF"/>
<path d="M35.0852 0C28.9793 0 23.0104 1.80152 17.9335 5.17674C12.8566 8.55196 8.89957 13.3493 6.56292 18.9621C4.22627 24.5749 3.61489 30.751 4.80611 36.7095C5.99732 42.668 8.93762 48.1413 13.2552 52.4371C17.5728 56.733 23.0737 59.6585 29.0623 60.8437C35.051 62.0289 41.2584 61.4206 46.8996 59.0957C52.5407 56.7708 57.3623 52.8338 60.7546 47.7824C64.1469 42.731 65.9575 36.7922 65.9575 30.717C65.9575 22.5703 62.7049 14.7573 56.9153 8.99679C51.1256 3.23624 43.2731 0 35.0852 0V0Z" fill="#4D1D4D"/>
<path d="M26.2735 21.3698C26.2744 21.1445 26.2306 20.9212 26.1445 20.7127C26.0584 20.5043 25.9319 20.3148 25.772 20.1551C25.6122 19.9954 25.4222 19.8688 25.213 19.7823C25.0039 19.6959 24.7796 19.6514 24.5531 19.6514C24.3264 19.6516 24.1021 19.6963 23.8928 19.783C23.6836 19.8698 23.4937 19.9968 23.3339 20.1568L14.7252 28.729C14.564 28.887 14.436 29.0753 14.3487 29.283C14.2613 29.4906 14.2163 29.7135 14.2163 29.9386C14.2163 30.1638 14.2613 30.3867 14.3487 30.5943C14.436 30.802 14.564 30.9903 14.7252 31.1483L23.3339 39.7205C23.6632 40.0116 24.0918 40.1666 24.5321 40.1537C24.9724 40.1408 25.3911 39.961 25.7026 39.6511C26.014 39.3412 26.1947 38.9246 26.2077 38.4865C26.2206 38.0485 26.0649 37.622 25.7723 37.2944L18.3759 29.9353L25.7723 22.5829C26.0915 22.2587 26.2713 21.8236 26.2735 21.3698Z" fill="white"/>
<path d="M46.4439 20.1566C46.1147 19.8655 45.6861 19.7105 45.2458 19.7234C44.8055 19.7363 44.3868 19.9161 44.0753 20.226C43.7638 20.5359 43.5831 20.9525 43.5702 21.3906C43.5572 21.8286 43.713 22.2551 44.0056 22.5827L51.4019 29.9351L44.0259 37.2942C43.8108 37.5069 43.6558 37.7721 43.5764 38.0633C43.497 38.3544 43.496 38.6612 43.5736 38.9529C43.6512 39.2445 43.8045 39.5107 44.0183 39.7247C44.232 39.9387 44.4986 40.0929 44.7913 40.1718C45.0855 40.2485 45.3947 40.2472 45.6883 40.168C45.9818 40.0888 46.2493 39.9344 46.4643 39.7203L55.0527 31.1481C55.2139 30.9901 55.3418 30.8018 55.4292 30.5941C55.5166 30.3865 55.5616 30.1636 55.5616 29.9385C55.5616 29.7133 55.5166 29.4905 55.4292 29.2828C55.3418 29.0751 55.2139 28.8868 55.0527 28.7288L46.4439 20.1566Z" fill="white"/>
<path d="M38.804 16.2885C38.3649 16.1677 37.8956 16.2236 37.4976 16.4443C37.0996 16.665 36.8049 17.0327 36.6772 17.4679L29.8024 41.4659C29.7394 41.6819 29.7199 41.9081 29.745 42.1315C29.7702 42.355 29.8396 42.5713 29.9491 42.768C30.0587 42.9647 30.2062 43.1378 30.3833 43.2775C30.5604 43.4172 30.7635 43.5207 30.9809 43.582C31.1348 43.6275 31.2946 43.6502 31.4551 43.6494C31.8305 43.6502 32.1959 43.5288 32.4955 43.3037C32.7951 43.0786 33.0125 42.7622 33.1145 42.4027L39.9622 18.4114C40.0868 17.9771 40.0353 17.5115 39.8188 17.1146C39.6022 16.7177 39.2379 16.4211 38.804 16.2885Z" fill="white"/>
<path d="M98.2199 38.4128L82.8812 30.0702L81.9941 30.5827V38.4128H79.0752V17.2574H81.9941V27.166L98.5919 17.2574H104.258L85.7715 28.3334L102.598 37.5016L104.258 38.4128H102.369H98.2199Z" fill="white"/>
<path d="M121.918 30.2695H108.039C108.154 31.6362 108.688 32.8226 109.642 33.8286C110.691 34.9675 111.979 35.537 113.505 35.537C114.535 35.537 115.48 35.2523 116.338 34.6828C117.197 34.1323 117.864 33.3636 118.341 32.3765L118.513 32.0064H121.661L121.317 32.889C120.707 34.5405 119.696 35.8787 118.284 36.9037C116.872 37.9287 115.279 38.4412 113.505 38.4412C111.139 38.4412 109.146 37.5776 107.524 35.8502C105.883 34.1608 105.063 32.1013 105.063 29.6716C105.063 27.2419 105.883 25.1634 107.524 23.436C109.165 21.7087 111.158 20.845 113.505 20.845C115.833 20.845 117.817 21.7087 119.457 23.436C121.098 25.1634 121.918 27.2229 121.918 29.6147V30.2695ZM110.128 25.0021C109.365 25.6474 108.793 26.4352 108.411 27.3653H118.57C118.189 26.4352 117.616 25.6474 116.853 25.0021C115.861 24.1858 114.736 23.7777 113.476 23.7777C112.236 23.7777 111.12 24.1858 110.128 25.0021Z" fill="white"/>
<path d="M139.748 30.2695H125.869C125.983 31.6362 126.518 32.8226 127.471 33.8286C128.521 34.9675 129.808 35.537 131.335 35.537C132.365 35.537 133.309 35.2523 134.168 34.6828C135.026 34.1323 135.694 33.3636 136.171 32.3765L136.343 32.0064H139.49L139.147 32.889C138.537 34.5405 137.525 35.8787 136.114 36.9037C134.702 37.9287 133.109 38.4412 131.335 38.4412C128.969 38.4412 126.975 37.5776 125.354 35.8502C123.713 34.1608 122.893 32.1013 122.893 29.6716C122.893 27.2419 123.713 25.1634 125.354 23.436C126.994 21.7087 128.988 20.845 131.335 20.845C133.662 20.845 135.646 21.7087 137.287 23.436C138.928 25.1634 139.748 27.2229 139.748 29.6147V30.2695ZM127.958 25.0021C127.195 25.6474 126.622 26.4352 126.241 27.3653H136.4C136.018 26.4352 135.446 25.6474 134.683 25.0021C133.691 24.1858 132.565 23.7777 131.306 23.7777C130.066 23.7777 128.95 24.1858 127.958 25.0021Z" fill="white"/>
<path d="M154.401 36.3058C152.818 37.9382 150.919 38.7544 148.706 38.7544C147.333 38.7544 146.064 38.3843 144.9 37.644C144.385 37.3213 143.918 36.9512 143.498 36.5335V44.0504H140.722V30.4119C140.722 28.0771 141.495 26.1125 143.04 24.518C144.605 22.8666 146.503 22.0409 148.735 22.0409C150.929 22.0409 152.818 22.8666 154.401 24.518C155.947 26.1125 156.719 28.0676 156.719 30.3834C156.719 32.7182 155.947 34.6923 154.401 36.3058ZM148.706 24.8027C147.276 24.8027 146.055 25.3532 145.043 26.4542C144.013 27.5361 143.498 28.8554 143.498 30.4119C143.498 31.9684 144.013 33.2876 145.043 34.3696C146.074 35.4516 147.295 35.9926 148.706 35.9926C150.118 35.9926 151.349 35.4516 152.398 34.3696C153.409 33.2687 153.915 31.9494 153.915 30.4119C153.915 28.8744 153.409 27.5551 152.398 26.4542C151.349 25.3532 150.118 24.8027 148.706 24.8027Z" fill="white"/>
<path d="M174.731 31.9209L174.416 32.8036C173.787 34.493 172.766 35.8502 171.354 36.8752C169.943 37.9192 168.34 38.4412 166.547 38.4412C164.181 38.4412 162.188 37.5776 160.566 35.8502C158.925 34.1608 158.105 32.1013 158.105 29.6716C158.105 27.2419 158.925 25.1634 160.566 23.436C162.207 21.7087 164.2 20.845 166.547 20.845C168.302 20.845 169.895 21.367 171.326 22.411C172.738 23.436 173.749 24.7743 174.359 26.4257L174.703 27.3084H171.583L171.412 26.9382C170.935 25.9701 170.267 25.2014 169.408 24.6319C168.512 24.0625 167.558 23.7777 166.547 23.7777C165.021 23.7777 163.733 24.3472 162.684 25.4861C161.596 26.625 161.052 28.0107 161.052 29.6431C161.052 31.2756 161.596 32.6707 162.684 33.8286C163.733 34.9675 165.021 35.537 166.547 35.537C167.596 35.537 168.56 35.2428 169.437 34.6543C170.315 34.0469 170.982 33.2592 171.44 32.2911L171.612 31.9209H174.731Z" fill="white"/>
<path d="M189.928 23.8916C191.512 25.562 192.303 27.5741 192.303 29.9279C192.303 32.2626 191.512 34.2652 189.928 35.9356C188.326 37.606 186.389 38.4412 184.119 38.4412C181.849 38.4412 179.912 37.606 178.31 35.9356C176.726 34.2652 175.934 32.2626 175.934 29.9279C175.934 27.5741 176.726 25.562 178.31 23.8916C179.912 22.2022 181.849 21.3575 184.119 21.3575C186.389 21.3575 188.326 22.2022 189.928 23.8916ZM184.119 35.5939C185.607 35.5939 186.866 35.0435 187.896 33.9425C188.946 32.8036 189.47 31.4559 189.47 29.8994C189.47 28.3429 188.946 26.9952 187.896 25.8562C186.847 24.7553 185.588 24.2048 184.119 24.2048C182.669 24.2048 181.419 24.7553 180.37 25.8562C179.321 26.9952 178.796 28.3429 178.796 29.8994C178.796 31.4559 179.321 32.8036 180.37 33.9425C181.4 35.0435 182.65 35.5939 184.119 35.5939Z" fill="white"/>
<path d="M195.272 24.0625C196.837 22.411 198.754 21.5853 201.024 21.5853C202.398 21.5853 203.676 21.9555 204.859 22.6958C205.412 23.0184 205.889 23.3981 206.29 23.8347V16.2324H209.094V30.0133C209.094 32.367 208.312 34.3506 206.748 35.9641C205.183 37.6345 203.266 38.4697 200.996 38.4697C198.744 38.4697 196.837 37.6345 195.272 35.9641C193.708 34.3506 192.926 32.3765 192.926 30.0417C192.926 27.669 193.708 25.6759 195.272 24.0625ZM201.024 35.6794C202.474 35.6794 203.705 35.1194 204.716 33.9995C205.25 33.449 205.641 32.8416 205.889 32.1772C206.156 31.5128 206.29 30.7915 206.29 30.0133C206.29 28.4378 205.765 27.0996 204.716 25.9986C203.686 24.9166 202.455 24.3757 201.024 24.3757C199.593 24.3757 198.353 24.9166 197.304 25.9986C196.274 27.1185 195.759 28.4568 195.759 30.0133C195.759 31.5888 196.274 32.9175 197.304 33.9995C198.334 35.1194 199.574 35.6794 201.024 35.6794Z" fill="white"/>
<path d="M226.856 30.2695H212.977C213.091 31.6362 213.626 32.8226 214.579 33.8286C215.629 34.9675 216.917 35.537 218.443 35.537C219.473 35.537 220.417 35.2523 221.276 34.6828C222.134 34.1323 222.802 33.3636 223.279 32.3765L223.451 32.0064H226.599L226.255 32.889C225.645 34.5405 224.634 35.8787 223.222 36.9037C221.81 37.9287 220.217 38.4412 218.443 38.4412C216.077 38.4412 214.083 37.5776 212.462 35.8502C210.821 34.1608 210.001 32.1013 210.001 29.6716C210.001 27.2419 210.821 25.1634 212.462 23.436C214.103 21.7087 216.096 20.845 218.443 20.845C220.77 20.845 222.754 21.7087 224.395 23.436C226.036 25.1634 226.856 27.2229 226.856 29.6147V30.2695ZM215.066 25.0021C214.303 25.6474 213.731 26.4352 213.349 27.3653H223.508C223.126 26.4352 222.554 25.6474 221.791 25.0021C220.799 24.1858 219.673 23.7777 218.414 23.7777C217.174 23.7777 216.058 24.1858 215.066 25.0021Z" fill="white"/>
</svg>
